<svg width="100" height="100" viewBox="0 0 100 100" fill="none" xmlns="http://www.w3.org/2000/svg">
<path d="M31.4121 5.12842C34.5083 3.84589 37.9878 3.84589 41.084 5.12842L48.3467 8.13623C49.4006 8.57134 50.5855 8.57131 51.6387 8.13428L51.6465 8.13037L58.916 5.13232C62.0111 3.85155 65.4912 3.85137 68.5859 5.1333C71.6813 6.4156 74.1402 8.875 75.4229 11.9702L78.3613 19.064C78.3874 19.12 78.4127 19.1773 78.4365 19.2349C78.8721 20.2881 79.7077 21.1252 80.7598 21.563L88.0303 24.5747C91.1264 25.8572 93.5867 28.3174 94.8691 31.4136C96.1515 34.5097 96.1514 37.9884 94.8691 41.0845L91.8594 48.3511C91.4216 49.4079 91.4229 50.5925 91.8594 51.6411L91.8633 51.6499L94.8662 58.9116C95.5015 60.4447 95.8288 62.0891 95.8291 63.7485C95.8294 65.4086 95.5034 67.0527 94.8682 68.5864C94.2329 70.1201 93.301 71.5133 92.127 72.687C90.9533 73.8604 89.5597 74.7915 88.0264 75.4263L80.7607 78.436C79.7078 78.8714 78.8676 79.7074 78.4297 80.7593L75.418 88.0317C74.1355 91.1279 71.6753 93.5881 68.5791 94.8706C65.4831 96.153 62.0042 96.153 58.9082 94.8706L51.6455 91.8618C50.5914 91.4262 49.407 91.4267 48.3535 91.8638L48.3486 91.8657L41.0771 94.8735C37.9827 96.1531 34.5067 96.1521 31.4131 94.8706C28.3195 93.5891 25.8605 91.1324 24.5771 88.0396L21.5635 80.7632C21.1276 79.7089 20.2898 78.8686 19.2363 78.4312L11.9688 75.4204C8.87393 74.1384 6.41475 71.6799 5.13184 68.5854C3.84894 65.4911 3.84717 62.0141 5.12695 58.9185L8.13574 51.6528C8.57085 50.5988 8.57083 49.4132 8.13379 48.3599L5.12793 41.0815C4.49293 39.5488 4.16434 37.9037 4.16406 36.2446C4.1638 34.5846 4.49071 32.9405 5.12598 31.4067C5.76118 29.8732 6.69237 28.4797 7.86621 27.3062C9.03986 26.1328 10.4335 25.2017 11.9668 24.5669L19.2334 21.5571C20.2857 21.122 21.1254 20.286 21.5635 19.2349L24.5742 11.9663C25.8567 8.87047 28.3163 6.41091 31.4121 5.12842ZM21.4287 50.7622L26.0977 67.5093L29.6387 66.522L27.71 59.604L34.5215 57.7056L33.708 54.7856L26.8955 56.6851L25.7832 52.6948L33.3311 50.5903L32.5166 47.6704L21.4287 50.7622ZM44.9326 44.9399C43.9126 44.7368 42.7703 44.8111 41.5059 45.1636L34.8984 47.0063L39.5674 63.7534L43.1084 62.7661L41.4531 56.8286L44.0371 56.1079L48.8652 61.1606L52.7734 60.0708L47.4033 54.5532C47.4484 54.5167 47.4955 54.4823 47.5391 54.4448C48.3307 53.7659 48.8555 52.9612 49.1133 52.0317C49.3695 51.0968 49.3431 50.0732 49.0332 48.9614C48.7247 47.8549 48.2188 46.9584 47.5166 46.2729C46.8183 45.5805 45.9567 45.1362 44.9326 44.9399ZM50.0137 42.7935L54.6836 59.5405L66.001 56.3843L65.1865 53.4653L57.4102 55.6333L56.2949 51.6353L63.459 49.6382L62.6445 46.7183L55.4814 48.7153L54.3691 44.7251L62.1123 42.5659L61.2988 39.647L50.0137 42.7935ZM64.1113 38.8628L68.7803 55.6099L80.0977 52.4536L79.2842 49.5347L71.5078 51.7026L70.3926 47.7046L77.5557 45.7075L76.7422 42.7876L69.5791 44.7847L68.4658 40.7944L76.21 38.6353L75.3955 35.7163L64.1113 38.8628ZM41.6338 48.2485C42.3152 48.0585 42.9079 48.0015 43.4111 48.0786C43.918 48.1487 44.3339 48.344 44.6582 48.6646C44.988 48.9838 45.2307 49.4221 45.3857 49.978C45.5392 50.5285 45.5557 51.0207 45.4355 51.4536C45.3208 51.8849 45.0661 52.2561 44.6709 52.5659C44.2756 52.8758 43.7394 53.1245 43.0635 53.313L40.6592 53.9829L39.2461 48.9136L41.6338 48.2485Z" fill="#B0B0B0"/>
</svg>
