<svg width="100" height="100" viewBox="0 0 100 100" fill="none" xmlns="http://www.w3.org/2000/svg">
<path d="M50.0025 18.75C60.1403 18.7502 69.3758 21.5792 77.7084 27.238C84.2249 31.6637 89.3429 37.2686 93.0567 44.0511C95.0842 47.7539 95.0842 52.2461 93.0567 55.9489C89.3429 62.7314 84.2249 68.3363 77.7084 72.762C69.3758 78.4208 60.1403 81.2498 50.0025 81.25C39.8638 81.25 30.6258 78.4215 22.2926 72.762C15.7764 68.3365 10.6621 62.731 6.94833 55.9489C4.92087 52.2461 4.92087 47.7539 6.94833 44.0511C10.6621 37.269 15.7764 31.6635 22.2926 27.238C30.6258 21.5784 39.8638 18.75 50.0025 18.75ZM50.0025 37.5C43.099 37.5 37.5025 43.0964 37.5025 50C37.5025 56.9036 43.099 62.5 50.0025 62.5C56.9055 62.4993 62.5025 56.9032 62.5025 50C62.5025 43.0968 56.9055 37.5007 50.0025 37.5Z" fill="#B0B0B0"/>
</svg>
