<svg width="100" height="100" viewBox="0 0 100 100" fill="none" xmlns="http://www.w3.org/2000/svg">
<path d="M35.2964 80.5566C34.5696 82.2833 32.5677 83.1065 30.9313 82.1944C25.4688 79.1496 20.9499 74.5249 18.0289 68.9807C17.1626 67.3364 18.0158 65.3682 19.7397 64.6737C21.4721 63.9758 23.4237 64.8324 24.3421 66.4588C26.5431 70.3563 29.7528 73.6392 33.5943 75.919C35.1999 76.8718 36.0207 78.8358 35.2964 80.5566Z" fill="#B0B0B0"/>
<path d="M29.3152 92.7498C28.534 94.4504 26.512 95.2023 24.8748 94.2955C16.5862 89.7047 9.88174 82.7706 5.58477 74.3381C4.7415 72.6832 5.54798 70.7025 7.25601 69.9729C8.97126 69.2402 10.9432 70.0484 11.81 71.6999C15.4302 78.5968 20.943 84.2974 27.7286 88.1514C29.3465 89.0704 30.092 91.0589 29.3152 92.7498Z" fill="#B0B0B0"/>
<path d="M87.1382 12.882C81.0997 6.81669 71.3051 6.81669 65.2582 12.882L49.7451 28.4638C43.774 28.3369 37.7608 30.5532 33.1962 35.1297C24.328 44.0372 24.328 58.4687 33.1962 67.3762C42.0644 76.2838 56.4321 76.2838 65.3003 67.3762C66.9679 65.7013 68.3153 63.8233 69.3597 61.827C71.8862 56.5992 72.3242 50.61 70.6819 45.1116C69.3175 40.865 66.8247 37.0076 63.4559 34.0469L67.8858 28.9545C72.3242 32.8457 75.5582 37.9635 77.2509 43.5804C77.2594 43.5974 77.2594 43.6227 77.2678 43.6481C77.352 43.9357 77.4446 44.2149 77.5204 44.511L87.1298 34.859C93.1767 28.7853 93.1767 18.9472 87.1382 12.882ZM55.3373 63.5949C55.152 65.3375 53.695 66.6233 51.9938 66.6233C51.8759 66.6233 51.758 66.6149 51.6401 66.6064C49.8041 66.4119 48.465 64.7623 48.6335 62.9182C48.6503 62.6644 48.9282 58.2741 45.0963 54.0107C38.7125 46.9049 41.5844 39.9007 41.7107 39.6046C42.4434 37.8874 44.4225 37.0838 46.1322 37.8197C47.8418 38.5557 48.6419 40.5436 47.9092 42.2608C47.7997 42.5484 46.747 45.746 50.0989 49.4765C56.0447 56.1001 55.3709 63.2904 55.3373 63.5949Z" fill="#B0B0B0"/>
</svg>
