<svg width="100" height="100" viewBox="0 0 100 100" fill="none" xmlns="http://www.w3.org/2000/svg">
<path fill-rule="evenodd" clip-rule="evenodd" d="M8.46394 49.9998C8.46268 49.4422 8.35317 48.8852 8.13539 48.3604L5.12939 41.0821C4.49433 39.5493 4.16628 37.904 4.16602 36.2448C4.16575 34.5847 4.49258 32.9409 5.12784 31.4072C5.7631 29.8735 6.69434 28.48 7.86836 27.3063C9.04206 26.1329 10.4354 25.2023 11.9688 24.5675L19.2352 21.5575C20.2875 21.1224 21.1269 20.2868 21.565 19.2356L24.5756 11.9671C25.858 8.87088 28.3179 6.41092 31.414 5.1284C34.5102 3.84587 37.9891 3.84587 41.0852 5.1284L48.3482 8.13694C49.4022 8.57205 50.5869 8.57149 51.6401 8.13446L51.6484 8.13104L58.9177 5.13282C62.0129 3.85204 65.4924 3.85162 68.5872 5.13355C71.6827 6.41582 74.1422 8.87508 75.4249 11.9705L78.3632 19.0645C78.3893 19.1205 78.4143 19.1773 78.4381 19.2349C78.8737 20.2884 79.7095 21.1258 80.7618 21.5636L88.0324 24.5753C91.1286 25.8578 93.5884 28.3178 94.8709 31.414C96.1533 34.5101 96.1533 37.989 94.8709 41.0852L91.861 48.3518C91.6424 48.8796 91.5332 49.4419 91.5331 50.0011C91.5332 50.5603 91.6424 51.1201 91.861 51.6479L94.8709 58.9145C96.1533 62.0107 96.1533 65.4895 94.8709 68.5857C93.5884 71.6819 91.1286 74.1419 88.0324 75.4244L80.7618 78.4361C79.7095 78.8738 78.8737 79.7113 78.4381 80.7648C78.4143 80.8224 78.3893 80.8792 78.3632 80.9352L75.4249 88.0292C74.1422 91.1246 71.6827 93.5839 68.5872 94.8661C65.4924 96.1481 62.0129 96.1476 58.9177 94.8669L51.6484 91.8686L51.6401 91.8652C50.5869 91.4282 49.4022 91.4276 48.3482 91.8627L41.0852 94.8713C37.9891 96.1538 34.5102 96.1538 31.414 94.8713C28.3179 93.5888 25.858 91.1288 24.5756 88.0326L21.565 80.764C21.1269 79.7129 20.2875 78.8773 19.2352 78.4422L11.9688 75.4322C10.4354 74.7974 9.04206 73.8668 7.86836 72.6934C6.69434 71.5197 5.7631 70.1262 5.12784 68.5925C4.49258 67.0588 4.16575 65.4149 4.16602 63.7549C4.16628 62.0957 4.49433 60.4503 5.12939 58.9175L8.13539 51.6393C8.35317 51.1144 8.46268 50.5575 8.46394 49.9998ZM67.529 42.5295C69.1562 40.9023 69.1562 38.2641 67.529 36.6369C65.9018 35.0097 63.2636 35.0097 61.6364 36.6369L45.8327 52.4406L40.4456 47.0536C38.8184 45.4264 36.1803 45.4264 34.5531 47.0536C32.9259 48.6807 32.9259 51.3189 34.5531 52.9461L42.8864 61.2795C44.5136 62.9066 47.1518 62.9066 48.779 61.2795L67.529 42.5295Z" fill="#B0B0B0"/>
</svg>
