<svg width="100" height="100" viewBox="0 0 100 100" fill="none" xmlns="http://www.w3.org/2000/svg">
<path fill-rule="evenodd" clip-rule="evenodd" d="M54.2134 16.6915C53.5293 16.6848 52.9107 16.6799 52.3713 16.6763C52.276 16.6698 52.1797 16.6665 52.0827 16.6665H47.916C47.814 16.6665 47.7128 16.6702 47.6126 16.6774C47.0757 16.6813 46.4609 16.6866 45.7814 16.6939C43.2195 16.7212 39.7308 16.7758 36.0321 16.8853C32.34 16.9946 28.4053 17.1595 24.9615 17.4097C21.6338 17.6515 18.4118 17.994 16.3526 18.5426L16.295 18.5584C13.8087 19.2591 11.5502 20.6016 9.74843 22.4519C7.94657 24.3024 6.6654 26.5954 6.03612 29.0998C6.01342 29.1902 5.99375 29.2813 5.97716 29.373C4.74068 36.2032 4.13513 43.1321 4.16812 50.0725C4.12549 57.0653 4.73109 64.047 5.97719 70.9287C6.00177 71.0645 6.03308 71.199 6.07101 71.3316C6.76472 73.7582 8.07446 75.9637 9.872 77.7359C11.6694 79.508 13.8938 80.787 16.3295 81.4509L16.3526 81.4571C18.4118 82.0057 21.6338 82.3482 24.9615 82.59C28.4053 82.8402 32.34 83.0051 36.0321 83.1144C39.7308 83.2239 43.2195 83.2785 45.7814 83.3058C46.4609 83.3131 47.0757 83.3184 47.6127 83.3223C47.7128 83.3295 47.814 83.3332 47.916 83.3332H52.0827C52.1847 83.3332 52.2859 83.3295 52.386 83.3223C52.923 83.3184 53.5378 83.3131 54.2173 83.3058C56.7792 83.2785 60.2679 83.2239 63.9666 83.1144C67.6587 83.0051 71.5934 82.8402 75.0372 82.59C78.3649 82.3482 81.5869 82.0057 83.6461 81.4571L83.7037 81.4413C86.19 80.7406 88.4485 79.3981 90.2503 77.5477C92.0521 75.6973 93.3333 73.4043 93.9626 70.8998C93.9853 70.8094 94.005 70.7183 94.0216 70.6266C95.2487 63.8469 95.8542 56.97 95.8306 50.0809C95.8734 43.0872 95.2678 36.1046 94.0215 29.2219C94.0049 29.1302 93.9853 29.0392 93.9626 28.9489C93.3333 26.4444 92.0521 24.1515 90.2503 22.301C88.4485 20.4506 86.19 19.1082 83.7037 18.4075C83.6555 18.3939 83.607 18.3811 83.5583 18.3693C81.532 17.8764 78.3402 17.5651 75.0111 17.3442C71.5745 17.1162 67.6456 16.9658 63.9559 16.8661C60.2601 16.7662 56.7739 16.7164 54.2134 16.6915ZM41.0399 35.9002C40.6244 36.4553 40.6244 37.4496 40.6244 39.4383V60.5606C40.6244 62.5492 40.6244 63.5436 41.0399 64.0987C41.4021 64.5825 41.9565 64.8851 42.5593 64.9282C43.2509 64.9776 44.0874 64.4399 45.7602 63.3645L62.1886 52.8034C63.6402 51.8702 64.366 51.4036 64.6167 50.8103C64.8358 50.2919 64.8358 49.707 64.6167 49.1886C64.366 48.5953 63.6402 48.1287 62.1886 47.1955L45.7602 36.6344C44.0874 35.559 43.2509 35.0213 42.5593 35.0707C41.9565 35.1138 41.4021 35.4164 41.0399 35.9002Z" fill="#B0B0B0"/>
</svg>
