<svg width="100" height="100" viewBox="0 0 100 100" fill="none" xmlns="http://www.w3.org/2000/svg">
<path fill-rule="evenodd" clip-rule="evenodd" d="M49.9994 4.1665C28.1381 4.1665 10.416 21.8886 10.416 43.7498C10.416 65.6111 28.1381 83.3332 49.9994 83.3332C71.8606 83.3332 89.5827 65.6111 89.5827 43.7498C89.5827 21.8886 71.8606 4.1665 49.9994 4.1665ZM63.2806 43.7498C63.2806 51.0849 57.3344 57.0311 49.9994 57.0311C42.6643 57.0311 36.7181 51.0849 36.7181 43.7498C36.7181 36.4148 42.6643 30.4686 49.9994 30.4686C57.3344 30.4686 63.2806 36.4148 63.2806 43.7498Z" fill="#B0B0B0"/>
<path d="M33.3327 87.4998C31.0315 87.4998 29.166 89.3653 29.166 91.6665C29.166 93.9677 31.0315 95.8332 33.3327 95.8332H66.666C68.9672 95.8332 70.8327 93.9677 70.8327 91.6665C70.8327 89.3653 68.9672 87.4998 66.666 87.4998H33.3327Z" fill="#B0B0B0"/>
<circle cx="92.8577" cy="7.14286" r="7.14286" fill="#ED013A"/>
</svg>
