<svg width="28" height="28" viewBox="0 0 28 28" fill="none" xmlns="http://www.w3.org/2000/svg">
<path fill-rule="evenodd" clip-rule="evenodd" d="M13.9997 4.66665C8.84502 4.66665 4.66634 8.84532 4.66634 14C4.66634 19.1546 8.84502 23.3333 13.9997 23.3333C16.9312 23.3333 19.5465 21.9832 21.2594 19.8663C21.6647 19.3654 22.3993 19.288 22.9002 19.6933C23.4011 20.0986 23.4786 20.8332 23.0733 21.3341C20.9363 23.9749 17.6651 25.6666 13.9997 25.6666C7.55635 25.6666 2.33301 20.4433 2.33301 14C2.33301 7.55666 7.55635 2.33331 13.9997 2.33331C19.9897 2.33331 24.9253 6.84753 25.5902 12.6595L25.6579 12.5918C26.1134 12.1361 26.8521 12.136 27.3078 12.5916C27.7635 13.0471 27.7636 13.7858 27.308 14.2415L24.9754 16.5748C24.7566 16.7936 24.4599 16.9166 24.1505 16.9166C23.8411 16.9167 23.5443 16.7938 23.3255 16.5751L20.9914 14.2417C20.5358 13.7862 20.5357 13.0475 20.9912 12.5918C21.4467 12.1361 22.1854 12.136 22.6411 12.5916L23.3036 13.2539C22.9235 8.44806 18.9032 4.66665 13.9997 4.66665ZM13.9997 6.99998C14.644 6.99998 15.1663 7.52231 15.1663 8.16665V13.3756L18.1468 15.3626C18.6829 15.72 18.8278 16.4443 18.4704 16.9805C18.113 17.5166 17.3886 17.6614 16.8525 17.304L13.3525 14.9707C13.028 14.7543 12.833 14.3901 12.833 14V8.16665C12.833 7.52231 13.3553 6.99998 13.9997 6.99998Z" fill="currentColor"/>
</svg>
