<svg width="28" height="28" viewBox="0 0 28 28" fill="none" xmlns="http://www.w3.org/2000/svg">
<path fill-rule="evenodd" clip-rule="evenodd" d="M18.5271 4.47555L18.7108 4.65541L19.3639 5.3374C20.6802 6.71448 20.772 8.82881 19.5837 10.174L19.414 10.352L15.6616 14.0243C15.9585 15.8632 15.4158 17.7901 14.0382 19.4483C11.4622 22.5481 7.33877 23.128 4.24507 20.5068C1.1458 17.8801 0.963983 13.5624 3.53171 10.4719C5.21075 8.45035 7.53358 7.63441 9.82951 8.11217L13.7497 4.43058C15.0549 3.15655 17.1431 3.20901 18.5271 4.47555ZM6.83981 10.0476C8.4715 9.89682 10.2168 10.4164 11.6319 11.6158C12.9654 12.7458 13.7617 14.2727 13.9638 15.825C13.9911 16.0342 14.2779 16.077 14.315 15.8693C14.6346 14.0821 13.9605 12.2575 12.2813 10.8345C10.5002 9.32521 8.47295 8.97805 6.71928 9.71009C6.52509 9.79115 6.63056 10.0669 6.83981 10.0476ZM7.28868 13.9456C7.31187 13.5371 7.00204 13.1858 6.59758 13.1624C6.19313 13.1399 5.84433 13.4519 5.82114 13.8613C5.75528 15.036 6.27476 16.0271 7.31002 16.7765L7.52338 16.9236C8.20891 17.3686 8.38516 17.852 8.14212 18.5705C8.11087 18.6627 8.09791 18.7602 8.10398 18.8575C8.11006 18.9547 8.13504 19.0498 8.17751 19.1374C8.21997 19.2249 8.27909 19.3031 8.35149 19.3675C8.42389 19.4319 8.50814 19.4814 8.59945 19.5129C8.69075 19.5445 8.78732 19.5575 8.88363 19.5514C8.97994 19.5453 9.07411 19.5201 9.16077 19.4772C9.24743 19.4343 9.32487 19.3746 9.38868 19.3015C9.45249 19.2284 9.50141 19.1433 9.53266 19.0511C9.97236 17.7517 9.60965 16.6173 8.51874 15.8135L8.31837 15.6749C7.56512 15.1849 7.25065 14.6322 7.28868 13.9456Z" fill="currentColor"/>
<path d="M21.9625 17.1208C21.9625 16.6859 22.3151 16.3333 22.75 16.3333C23.1849 16.3333 23.5375 16.6859 23.5375 17.1208V26.0458C23.5375 26.4808 23.1849 26.8333 22.75 26.8333C22.3151 26.8333 21.9625 26.4808 21.9625 26.0458V17.1208Z" fill="currentColor"/>
<path d="M18.2875 22.371C17.8526 22.371 17.5 22.0184 17.5 21.5835C17.5 21.1485 17.8526 20.796 18.2875 20.796L27.2125 20.796C27.6474 20.796 28 21.1485 28 21.5835C28 22.0184 27.6474 22.371 27.2125 22.371L18.2875 22.371Z" fill="currentColor"/>
</svg>
