<svg width="28" height="28" viewBox="0 0 28 28" fill="none" xmlns="http://www.w3.org/2000/svg">
<path d="M14.0005 5.25C16.839 5.25006 19.425 6.04217 21.7581 7.62663C23.5827 8.86584 25.0158 10.4352 26.0556 12.3343C26.6233 13.3711 26.6233 14.6289 26.0556 15.6657C25.0158 17.5648 23.5827 19.1342 21.7581 20.3734C19.425 21.9578 16.839 22.7499 14.0005 22.75C11.1616 22.75 8.57498 21.958 6.24168 20.3734C4.41717 19.1342 2.98515 17.5647 1.9453 15.6657C1.37761 14.6289 1.37761 13.3711 1.9453 12.3343C2.98515 10.4353 4.41717 8.86578 6.24168 7.62663C8.57498 6.04197 11.1616 5.25 14.0005 5.25ZM14.0005 10.5C12.0675 10.5 10.5005 12.067 10.5005 14C10.5005 15.933 12.0675 17.5 14.0005 17.5C15.9333 17.4998 17.5005 15.9329 17.5005 14C17.5005 12.0671 15.9333 10.5002 14.0005 10.5Z" fill="currentColor"/>
</svg>
