<svg width="28" height="28" viewBox="0 0 28 28" fill="none" xmlns="http://www.w3.org/2000/svg">
<path fill-rule="evenodd" clip-rule="evenodd" d="M19.8243 12.3031C18.8389 9.73759 16.3348 7.92862 13.2223 8.50611C9.78153 9.14453 7.52581 12.2718 7.9951 15.6749C8.16301 16.8925 8.6915 18.8428 9.23365 20.6672C9.78413 22.5197 10.3775 24.336 10.7073 25.3279C10.7099 25.3354 10.7124 25.3431 10.715 25.3509C10.7528 25.4646 10.7997 25.606 10.8519 25.7292C10.9143 25.8766 11.0133 26.0722 11.1891 26.2584C11.4225 26.5056 11.7264 26.681 12.0572 26.7596C12.3063 26.8188 12.5253 26.8067 12.6841 26.787C12.8169 26.7706 12.9628 26.7406 13.0801 26.7164C13.0882 26.7148 13.0962 26.7131 13.104 26.7115C14.1279 26.5013 15.9975 26.107 17.877 25.6575C19.7281 25.2148 21.6813 24.6973 22.8198 24.2339C25.986 22.9451 27.637 19.4328 26.4091 16.1077C25.3146 13.1438 22.5365 11.872 19.8243 12.3031Z" fill="currentColor"/>
<path d="M17.0281 1.74164C14.1584 0.419809 11.2947 1.4849 9.68169 3.70757C7.17078 2.59028 4.12099 3.0818 2.3285 5.69098C0.346919 8.57543 0.963226 12.3818 3.70139 14.4563C4.19091 14.8272 4.87603 15.2654 5.65074 15.7256C5.16212 11.1793 8.23311 7.05867 12.7966 6.21194C16.0689 5.6048 18.8211 6.89254 20.5689 9.01541C21.2649 6.12956 19.908 3.06819 17.0281 1.74164Z" fill="currentColor"/>
</svg>
