<svg width="28" height="28" viewBox="0 0 28 28" fill="none" xmlns="http://www.w3.org/2000/svg">
<path fill-rule="evenodd" clip-rule="evenodd" d="M9.33301 14C9.33301 13.3557 9.85534 12.8334 10.4997 12.8334L24.4997 12.8334C25.144 12.8334 25.6663 13.3557 25.6663 14C25.6663 14.6444 25.144 15.1667 24.4997 15.1667L10.4997 15.1667C9.85534 15.1667 9.33301 14.6444 9.33301 14Z" fill="currentColor"/>
<path fill-rule="evenodd" clip-rule="evenodd" d="M9.33301 7.00002C9.33301 6.35569 9.85534 5.83335 10.4997 5.83335L24.4997 5.83336C25.144 5.83336 25.6663 6.35569 25.6663 7.00002C25.6663 7.64435 25.144 8.16669 24.4997 8.16669L10.4997 8.16669C9.85534 8.16669 9.33301 7.64435 9.33301 7.00002Z" fill="currentColor"/>
<path fill-rule="evenodd" clip-rule="evenodd" d="M9.33301 21C9.33301 20.3557 9.85534 19.8334 10.4997 19.8334L24.4997 19.8334C25.144 19.8334 25.6663 20.3557 25.6663 21C25.6663 21.6444 25.144 22.1667 24.4997 22.1667L10.4997 22.1667C9.85534 22.1667 9.33301 21.6444 9.33301 21Z" fill="currentColor"/>
<path fill-rule="evenodd" clip-rule="evenodd" d="M2.33301 14C2.33301 12.7114 3.37768 11.6667 4.66634 11.6667C5.95501 11.6667 6.99967 12.7114 6.99967 14C6.99967 15.2887 5.95501 16.3334 4.66634 16.3334C3.37768 16.3334 2.33301 15.2887 2.33301 14Z" fill="currentColor"/>
<path fill-rule="evenodd" clip-rule="evenodd" d="M2.33301 7.00002C2.33301 5.71136 3.37768 4.66669 4.66634 4.66669C5.95501 4.66669 6.99967 5.71136 6.99967 7.00002C6.99967 8.28868 5.95501 9.33335 4.66634 9.33335C3.37768 9.33335 2.33301 8.28868 2.33301 7.00002Z" fill="currentColor"/>
<path fill-rule="evenodd" clip-rule="evenodd" d="M2.33301 21C2.33301 19.7114 3.37768 18.6667 4.66634 18.6667C5.95501 18.6667 6.99967 19.7114 6.99967 21C6.99967 22.2887 5.95501 23.3334 4.66634 23.3334C3.37768 23.3334 2.33301 22.2887 2.33301 21Z" fill="currentColor"/>
</svg>
