<svg width="28" height="28" viewBox="0 0 28 28" fill="none" xmlns="http://www.w3.org/2000/svg">
<path fill-rule="evenodd" clip-rule="evenodd" d="M2.37041 14C2.37006 13.8439 2.3394 13.6879 2.27842 13.5409L1.43674 11.503C1.25892 11.0739 1.16707 10.6131 1.16699 10.1486C1.16692 9.68376 1.25843 9.22349 1.4363 8.79405C1.61418 8.36461 1.87492 7.97442 2.20365 7.64579C2.53228 7.31725 2.92242 7.05667 3.35177 6.87892L5.38636 6.03614C5.68101 5.9143 5.91603 5.68033 6.0387 5.38601L6.88167 3.35082C7.24076 2.48388 7.92951 1.79509 8.79644 1.43599C9.66337 1.07688 10.6374 1.07688 11.5044 1.43599L13.538 2.27838C13.8331 2.40021 14.1648 2.40005 14.4597 2.27769L14.4621 2.27673L16.4975 1.43723C17.3641 1.07861 18.3384 1.07849 19.2049 1.43743C20.0717 1.79647 20.7603 2.48506 21.1195 3.35177L21.9422 5.3381C21.9495 5.35378 21.9565 5.36968 21.9632 5.3858C22.0851 5.68077 22.3192 5.91527 22.6138 6.03784L24.6496 6.88111C25.5165 7.24022 26.2053 7.92901 26.5644 8.79594C26.9234 9.66288 26.9234 10.6369 26.5644 11.5039L25.7216 13.5385C25.6604 13.6863 25.6298 13.8438 25.6298 14.0003C25.6298 14.1569 25.6604 14.3137 25.7216 14.4614L26.5644 16.4961C26.9234 17.363 26.9234 18.3371 26.5644 19.204C26.2053 20.071 25.5165 20.7598 24.6496 21.1189L22.6138 21.9621C22.3192 22.0847 22.0851 22.3192 21.9632 22.6142C21.9565 22.6303 21.9495 22.6462 21.9422 22.6619L21.1195 24.6482C20.7603 25.5149 20.0717 26.2035 19.2049 26.5626C18.3384 26.9215 17.3641 26.9214 16.4975 26.5628L14.4621 25.7233L14.4597 25.7223C14.1648 25.5999 13.8331 25.5998 13.538 25.7216L11.5044 26.564C10.6374 26.9231 9.66337 26.9231 8.79644 26.564C7.92951 26.2049 7.24076 25.5161 6.88167 24.6492L6.0387 22.614C5.91603 22.3196 5.68101 22.0857 5.38636 21.9638L3.35177 21.1211C2.92242 20.9433 2.53228 20.6827 2.20365 20.3542C1.87492 20.0256 1.61418 19.6354 1.4363 19.2059C1.25843 18.7765 1.16692 18.3162 1.16699 17.8514C1.16707 17.3868 1.25892 16.9261 1.43674 16.4969L2.27842 14.459C2.3394 14.3121 2.37006 14.1561 2.37041 14ZM18.9086 11.9083C19.3642 11.4527 19.3642 10.714 18.9086 10.2584C18.453 9.80275 17.7143 9.80275 17.2587 10.2584L12.8337 14.6834L11.3253 13.175C10.8697 12.7194 10.131 12.7194 9.67537 13.175C9.21976 13.6306 9.21976 14.3693 9.67537 14.8249L12.0087 17.1583C12.4643 17.6139 13.203 17.6139 13.6586 17.1583L18.9086 11.9083Z" fill="currentColor"/>
</svg>
