<svg width="24" height="24" viewBox="0 0 24 24" fill="none" xmlns="http://www.w3.org/2000/svg">
<path fill-rule="evenodd" clip-rule="evenodd" d="M15.8804 3.83618L16.0378 3.99035L16.5976 4.57491C17.7259 5.75527 17.8046 7.56756 16.786 8.72061L16.6405 8.87317L13.4242 12.0208C13.6787 13.597 13.2135 15.2487 12.0328 16.6699C9.82471 19.327 6.29038 19.824 3.63863 17.5773C0.982116 15.3258 0.826271 11.6249 3.02718 8.97595C4.46636 7.24316 6.45735 6.54378 8.42529 6.95329L11.7855 3.79764C12.9042 2.70561 14.6941 2.75058 15.8804 3.83618ZM5.8627 8.6122C7.26129 8.48299 8.75726 8.92833 9.97022 9.95637C11.1132 10.925 11.7957 12.2337 11.969 13.5643C11.9923 13.7436 12.2382 13.7803 12.27 13.6023C12.544 12.0703 11.9661 10.5064 10.5268 9.2867C9.00021 7.99304 7.26253 7.69547 5.75939 8.32294C5.59293 8.39242 5.68333 8.62877 5.8627 8.6122ZM6.24744 11.9533C6.26732 11.6032 6.00175 11.3021 5.65507 11.2821C5.3084 11.2628 5.00943 11.5302 4.98955 11.8811C4.9331 12.888 5.37837 13.7375 6.26573 14.3799L6.44861 14.506C7.03621 14.8874 7.18728 15.3017 6.97896 15.9176C6.95217 15.9966 6.94107 16.0802 6.94627 16.1636C6.95148 16.2469 6.97289 16.3284 7.00929 16.4034C7.04569 16.4785 7.09637 16.5455 7.15842 16.6007C7.22047 16.656 7.29269 16.6983 7.37095 16.7253C7.44922 16.7524 7.53198 16.7636 7.61454 16.7584C7.69709 16.7531 7.77781 16.7315 7.85209 16.6947C7.92636 16.658 7.99275 16.6068 8.04744 16.5441C8.10213 16.4815 8.14407 16.4085 8.17085 16.3295C8.54774 15.2158 8.23685 14.2434 7.30178 13.5544L7.13003 13.4356C6.48439 13.0157 6.21484 12.5419 6.24744 11.9533Z" fill="#B0B0B0"/>
<path d="M18.825 14.675C18.825 14.3022 19.1272 14 19.5 14C19.8728 14 20.175 14.3022 20.175 14.675V22.325C20.175 22.6978 19.8728 23 19.5 23C19.1272 23 18.825 22.6978 18.825 22.325V14.675Z" fill="#B0B0B0"/>
<path d="M15.675 19.1751C15.3022 19.1751 15 18.8729 15 18.5001C15 18.1273 15.3022 17.8251 15.675 17.8251L23.325 17.8251C23.6978 17.8251 24 18.1273 24 18.5001C24 18.8729 23.6978 19.1751 23.325 19.1751L15.675 19.1751Z" fill="#B0B0B0"/>
</svg>
