<svg width="28" height="28" viewBox="0 0 28 28" fill="none" xmlns="http://www.w3.org/2000/svg">
<path fill-rule="evenodd" clip-rule="evenodd" d="M11.6667 5.83333C11.6667 4.54467 12.7113 3.5 14 3.5C15.2887 3.5 16.3333 4.54467 16.3333 5.83333C16.3333 7.122 15.2887 8.16667 14 8.16667C12.7113 8.16667 11.6667 7.122 11.6667 5.83333Z" fill="white"/>
<path fill-rule="evenodd" clip-rule="evenodd" d="M11.6667 14C11.6667 12.7113 12.7113 11.6667 14 11.6667C15.2887 11.6667 16.3333 12.7113 16.3333 14C16.3333 15.2887 15.2887 16.3333 14 16.3333C12.7113 16.3333 11.6667 15.2887 11.6667 14Z" fill="white"/>
<path fill-rule="evenodd" clip-rule="evenodd" d="M11.6667 22.1667C11.6667 20.878 12.7113 19.8333 14 19.8333C15.2887 19.8333 16.3333 20.878 16.3333 22.1667C16.3333 23.4553 15.2887 24.5 14 24.5C12.7113 24.5 11.6667 23.4553 11.6667 22.1667Z" fill="white"/>
<path fill-rule="evenodd" clip-rule="evenodd" d="M19.8333 5.83333C19.8333 4.54467 20.878 3.5 22.1667 3.5C23.4553 3.5 24.5 4.54467 24.5 5.83333C24.5 7.122 23.4553 8.16667 22.1667 8.16667C20.878 8.16667 19.8333 7.122 19.8333 5.83333Z" fill="white"/>
<path fill-rule="evenodd" clip-rule="evenodd" d="M19.8333 14C19.8333 12.7113 20.878 11.6667 22.1667 11.6667C23.4553 11.6667 24.5 12.7113 24.5 14C24.5 15.2887 23.4553 16.3333 22.1667 16.3333C20.878 16.3333 19.8333 15.2887 19.8333 14Z" fill="white"/>
<path fill-rule="evenodd" clip-rule="evenodd" d="M19.8333 22.1667C19.8333 20.878 20.878 19.8333 22.1667 19.8333C23.4553 19.8333 24.5 20.878 24.5 22.1667C24.5 23.4553 23.4553 24.5 22.1667 24.5C20.878 24.5 19.8333 23.4553 19.8333 22.1667Z" fill="white"/>
<path fill-rule="evenodd" clip-rule="evenodd" d="M3.5 5.83333C3.5 4.54467 4.54467 3.5 5.83333 3.5C7.122 3.5 8.16667 4.54467 8.16667 5.83333C8.16667 7.122 7.122 8.16667 5.83333 8.16667C4.54467 8.16667 3.5 7.122 3.5 5.83333Z" fill="white"/>
<path fill-rule="evenodd" clip-rule="evenodd" d="M3.5 14C3.5 12.7113 4.54467 11.6667 5.83333 11.6667C7.122 11.6667 8.16667 12.7113 8.16667 14C8.16667 15.2887 7.122 16.3333 5.83333 16.3333C4.54467 16.3333 3.5 15.2887 3.5 14Z" fill="white"/>
<path fill-rule="evenodd" clip-rule="evenodd" d="M3.5 22.1667C3.5 20.878 4.54467 19.8333 5.83333 19.8333C7.122 19.8333 8.16667 20.878 8.16667 22.1667C8.16667 23.4553 7.122 24.5 5.83333 24.5C4.54467 24.5 3.5 23.4553 3.5 22.1667Z" fill="white"/>
</svg>
