<svg width="28" height="28" viewBox="0 0 28 28" fill="none" xmlns="http://www.w3.org/2000/svg">
<path fill-rule="evenodd" clip-rule="evenodd" d="M1.16699 11.06C1.16699 6.96629 4.26769 2.33333 9.20403 2.33333C11.3356 2.33333 12.9108 3.16225 14.0003 4.09596C15.0899 3.16225 16.6651 2.33333 18.7966 2.33333C23.733 2.33333 26.8337 6.96629 26.8337 11.06C26.8337 13.213 25.9999 15.2013 24.8421 16.9273C23.6834 18.6547 22.1582 20.1832 20.6633 21.4431C19.1641 22.7067 17.6633 23.7267 16.5246 24.4313C15.9544 24.784 15.4699 25.0608 15.1154 25.2522C14.9391 25.3474 14.7893 25.4245 14.6736 25.4804C14.6174 25.5077 14.5588 25.5349 14.5042 25.5579C14.4784 25.5687 14.4388 25.5848 14.3933 25.6003C14.371 25.6079 14.3333 25.6201 14.2868 25.6316C14.2572 25.6389 14.1447 25.6667 14.0003 25.6667C13.856 25.6667 13.7442 25.6391 13.7146 25.6318C13.6681 25.6203 13.6297 25.6079 13.6073 25.6003C13.5618 25.5848 13.5222 25.5687 13.4964 25.5579C13.4419 25.5349 13.3832 25.5077 13.327 25.4804C13.2114 25.4245 13.0615 25.3474 12.8852 25.2522C12.5308 25.0608 12.0463 24.784 11.4761 24.4313C10.3373 23.7267 8.8366 22.7067 7.33736 21.4431C5.8425 20.1832 4.31725 18.6547 3.15853 16.9273C2.00074 15.2013 1.16699 13.213 1.16699 11.06Z" fill="white"/>
</svg>
