<svg width="28" height="28" viewBox="0 0 28 28" fill="none" xmlns="http://www.w3.org/2000/svg">
<path d="M8.7959 1.43652C9.66279 1.07743 10.637 1.07746 11.5039 1.43652L13.5381 2.2793C13.8328 2.40079 14.1644 2.40037 14.459 2.27832L14.4619 2.27734L16.4971 1.4375C17.3635 1.07896 18.3377 1.07879 19.2041 1.4375C20.0708 1.79655 20.76 2.48587 21.1191 3.35254L21.9414 5.33887C21.9487 5.35443 21.9563 5.37072 21.9629 5.38672C22.0849 5.68127 22.319 5.91559 22.6133 6.03809L24.6494 6.88184C25.5162 7.24098 26.2054 7.93006 26.5645 8.79688C26.9231 9.66341 26.9232 10.6374 26.5645 11.5039L25.7217 13.5391C25.5992 13.8349 25.5995 14.1664 25.7217 14.46L25.7227 14.4629L26.5635 16.4961C26.7412 16.9252 26.8329 17.3862 26.833 17.8506C26.833 18.3151 26.7413 18.7759 26.5635 19.2051C26.3856 19.6342 26.1244 20.0241 25.7959 20.3525C25.4673 20.681 25.0776 20.9424 24.6484 21.1201L22.6133 21.9629C22.3187 22.0849 22.0835 22.3189 21.9609 22.6133L21.1172 24.6494C20.7581 25.5161 20.0698 26.2054 19.2031 26.5645C18.3363 26.9235 17.3619 26.9234 16.4951 26.5645L14.4609 25.7217C14.166 25.5999 13.8348 25.6005 13.54 25.7227H13.5381L11.502 26.5654C10.6357 26.9235 9.66192 26.9231 8.7959 26.5645C7.92994 26.2056 7.24213 25.5171 6.88281 24.6514L6.03809 22.6143C5.91603 22.3192 5.68158 22.0834 5.38672 21.9609L3.35156 21.1182C2.48524 20.7592 1.79672 20.0703 1.4375 19.2041C1.07851 18.3379 1.07842 17.3646 1.43652 16.498L2.27832 14.4629C2.40004 14.1679 2.40053 13.8358 2.27832 13.541L1.43652 11.5039C1.2588 11.075 1.16716 10.6137 1.16699 10.1494C1.16692 9.68489 1.2579 9.22413 1.43555 8.79492C1.61335 8.36565 1.87459 7.97503 2.20312 7.64648C2.53171 7.31799 2.92229 7.05762 3.35156 6.87988L5.38574 6.03613C5.68019 5.91438 5.91534 5.68075 6.03809 5.38672L6.88086 3.35156C7.2399 2.48474 7.92913 1.79567 8.7959 1.43652ZM5.58398 13.8877L6.8916 18.5771L7.88281 18.3008L7.34277 16.3643L9.25 15.832L9.02148 15.0146L7.11426 15.5469L6.80273 14.4287L8.91602 13.8398L8.68848 13.0225L5.58398 13.8877ZM12.165 12.2578C11.8794 12.2009 11.5592 12.2216 11.2051 12.3203L9.35547 12.8369L10.6631 17.5254L11.6543 17.249L11.1904 15.5869L11.9141 15.3848L13.2656 16.7998L14.3604 16.4951L12.8555 14.9482C12.8681 14.938 12.8823 14.9295 12.8945 14.9189C13.1161 14.7289 13.2637 14.5043 13.3359 14.2441C13.4077 13.9823 13.4003 13.6952 13.3135 13.3838C13.2271 13.0739 13.0853 12.8228 12.8887 12.6309C12.6931 12.437 12.4518 12.3128 12.165 12.2578ZM13.5869 11.6572L14.8936 16.3457L18.0625 15.4629L17.835 14.6445L15.6572 15.252L15.3457 14.1328L17.3506 13.5732L17.123 12.7559L15.1172 13.3154L14.8057 12.1973L16.9746 11.5928L16.7461 10.7754L13.5869 11.6572ZM17.5342 10.5557L18.8418 15.2451L22.0107 14.3613L21.7832 13.5439L19.6055 14.1514L19.293 13.0322L21.2988 12.4727L21.0713 11.6553L19.0654 12.2139L18.7539 11.0967L20.9219 10.4922L20.6943 9.6748L17.5342 10.5557ZM11.7393 13.1367C11.881 13.1564 11.9972 13.2112 12.0879 13.3008C12.1803 13.3902 12.2486 13.5132 12.292 13.6689C12.3349 13.823 12.3393 13.9609 12.3057 14.082C12.2735 14.2027 12.2024 14.3068 12.0918 14.3936C11.9811 14.4803 11.8308 14.5498 11.6416 14.6025L10.9678 14.79L10.5723 13.3711L11.2412 13.1846C11.432 13.1314 11.5983 13.1151 11.7393 13.1367Z" fill="white"/>
</svg>
