<svg width="28" height="28" viewBox="0 0 28 28" fill="none" xmlns="http://www.w3.org/2000/svg">
<path d="M9.88349 22.5559C9.68 23.0394 9.11945 23.2699 8.66128 23.0145C7.13178 22.162 5.86649 20.867 5.0486 19.3147C4.80604 18.8543 5.04493 18.3032 5.52761 18.1087C6.0127 17.9133 6.55914 18.1531 6.8163 18.6085C7.43256 19.6998 8.3313 20.6191 9.40691 21.2574C9.85648 21.5242 10.0863 22.0741 9.88349 22.5559Z" fill="white"/>
<path d="M8.20878 25.97C7.99002 26.4462 7.42386 26.6567 6.96545 26.4028C4.64464 25.1174 2.7674 23.1758 1.56424 20.8147C1.32813 20.3514 1.55394 19.7968 2.03219 19.5925C2.51246 19.3873 3.0646 19.6136 3.30732 20.076C4.32096 22.0072 5.86453 23.6033 7.7645 24.6825C8.21754 24.9398 8.42627 25.4966 8.20878 25.97Z" fill="white"/>
<path d="M24.3992 3.60702C22.7084 1.90875 19.9659 1.90875 18.2728 3.60702L13.9291 7.96994C12.2572 7.93441 10.5735 8.55498 9.29544 9.83638C6.81233 12.3305 6.81233 16.3713 9.29544 18.8654C11.7785 21.3595 15.8015 21.3595 18.2846 18.8654C18.7515 18.3964 19.1288 17.8706 19.4212 17.3116C20.1286 15.8478 20.2513 14.1709 19.7914 12.6313C19.4094 11.4423 18.7114 10.3622 17.7682 9.5332L19.0085 8.10732C20.2513 9.19687 21.1568 10.6299 21.6308 12.2026C21.6331 12.2073 21.6331 12.2144 21.6355 12.2215C21.6591 12.3021 21.685 12.3802 21.7062 12.4631L24.3968 9.76059C26.09 8.05995 26.09 5.30529 24.3992 3.60702ZM15.4949 17.8067C15.4431 18.2946 15.0351 18.6546 14.5588 18.6546C14.5258 18.6546 14.4927 18.6522 14.4597 18.6499C13.9457 18.5954 13.5707 18.1335 13.6179 17.6172C13.6226 17.5461 13.7004 16.3168 12.6275 15.1231C10.84 13.1334 11.6441 11.1723 11.6795 11.0894C11.8847 10.6085 12.4388 10.3835 12.9175 10.5896C13.3962 10.7957 13.6202 11.3523 13.4151 11.8331C13.3844 11.9136 13.0897 12.809 14.0282 13.8535C15.693 15.7081 15.5044 17.7214 15.4949 17.8067Z" fill="white"/>
</svg>
