<svg width="28" height="28" viewBox="0 0 28 28" fill="none" xmlns="http://www.w3.org/2000/svg">
<path d="M14.7535 2.07161C14.2771 1.84446 13.7236 1.84446 13.2472 2.07161C12.8353 2.26798 12.6083 2.60892 12.4938 2.79596C12.3754 2.98932 12.2539 3.23564 12.1354 3.47572L9.62038 8.57089L3.99465 9.39317C3.72983 9.43182 3.45811 9.47148 3.2377 9.52448C3.02448 9.57575 2.63026 9.68665 2.31653 10.0178C1.95359 10.4009 1.7829 10.9273 1.85199 11.4505C1.91171 11.9027 2.16586 12.2238 2.30843 12.3905C2.4558 12.5627 2.65256 12.7543 2.84432 12.941L6.91341 16.9043L5.95329 22.5023C5.90796 22.7662 5.86146 23.037 5.84356 23.2631C5.82625 23.4817 5.80951 23.8911 6.02733 24.2921C6.27928 24.7559 6.72714 25.0813 7.24615 25.1775C7.69486 25.2607 8.07902 25.1182 8.2816 25.0342C8.49107 24.9472 8.73423 24.8193 8.97125 24.6946L14.0004 22.0498L19.0295 24.6946C19.2665 24.8193 19.5097 24.9473 19.7191 25.0342C19.9217 25.1182 20.3059 25.2607 20.7546 25.1775C21.2736 25.0813 21.7214 24.7559 21.9734 24.2921C22.1912 23.8911 22.1745 23.4817 22.1571 23.2631C22.1392 23.037 22.0928 22.7662 22.0474 22.5023L21.0873 16.9043L25.1564 12.9409C25.3482 12.7543 25.5449 12.5627 25.6923 12.3905C25.8348 12.2238 26.089 11.9027 26.1487 11.4505C26.2178 10.9273 26.0471 10.4009 25.6842 10.0178C25.3705 9.68665 24.9762 9.57576 24.763 9.52448C24.5426 9.47148 24.2709 9.43182 24.006 9.39317L18.3803 8.57089L15.8653 3.47581C15.7469 3.23571 15.6253 2.98934 15.507 2.79596C15.3924 2.60892 15.1654 2.26798 14.7535 2.07161Z" fill="white"/>
</svg>
