<svg width="28" height="28" viewBox="0 0 28 28" fill="none" xmlns="http://www.w3.org/2000/svg">
<path fill-rule="evenodd" clip-rule="evenodd" d="M14.0003 1.16669C6.91267 1.16669 1.16699 6.91237 1.16699 14C1.16699 21.0877 6.91267 26.8334 14.0003 26.8334C21.088 26.8334 26.8337 21.0877 26.8337 14C26.8337 6.91237 21.088 1.16669 14.0003 1.16669ZM15.167 6.41669C15.167 5.77236 14.6447 5.25002 14.0003 5.25002C13.356 5.25002 12.8337 5.77236 12.8337 6.41669V7.00002C10.5785 7.00002 8.75033 8.82819 8.75033 11.0834C8.75033 13.3385 10.5785 15.1667 12.8337 15.1667H15.167C16.1335 15.1667 16.917 15.9502 16.917 16.9167C16.917 17.8832 16.1335 18.6667 15.167 18.6667H12.6392C11.7801 18.6667 11.0837 17.9702 11.0837 17.1111C11.0837 16.4668 10.5613 15.9445 9.91699 15.9445C9.27266 15.9445 8.75033 16.4668 8.75033 17.1111C8.75033 19.2589 10.4914 21 12.6392 21H12.8337V21.5834C12.8337 22.2277 13.356 22.75 14.0003 22.75C14.6447 22.75 15.167 22.2277 15.167 21.5834V21C17.4222 21 19.2503 19.1719 19.2503 16.9167C19.2503 14.6615 17.4222 12.8334 15.167 12.8334H12.8337C11.8672 12.8334 11.0837 12.0499 11.0837 11.0834C11.0837 10.1169 11.8672 9.33335 12.8337 9.33335H15.3614C16.2205 9.33335 16.917 10.0298 16.917 10.8889C16.917 11.5332 17.4393 12.0556 18.0837 12.0556C18.728 12.0556 19.2503 11.5332 19.2503 10.8889C19.2503 8.74114 17.5092 7.00002 15.3614 7.00002H15.167V6.41669Z" fill="white"/>
</svg>
