<svg width="20" height="20" viewBox="0 0 20 20" fill="none" xmlns="http://www.w3.org/2000/svg">
<path fill-rule="evenodd" clip-rule="evenodd" d="M8.33464 1.66663C4.65274 1.66663 1.66797 4.65139 1.66797 8.33329C1.66797 12.0152 4.65274 15 8.33464 15C9.87523 15 11.2938 14.4774 12.4227 13.5998L16.912 18.0892C17.2375 18.4147 17.7651 18.4147 18.0906 18.0892C18.416 17.7638 18.416 17.2361 18.0906 16.9107L13.6012 12.4213C14.4787 11.2924 15.0013 9.87389 15.0013 8.33329C15.0013 4.65139 12.0165 1.66663 8.33464 1.66663ZM3.33464 8.33329C3.33464 5.57187 5.57321 3.33329 8.33464 3.33329C11.0961 3.33329 13.3346 5.57187 13.3346 8.33329C13.3346 11.0947 11.0961 13.3333 8.33464 13.3333C5.57321 13.3333 3.33464 11.0947 3.33464 8.33329Z" fill="#B0B0B0"/>
</svg>
