<svg width="28" height="28" viewBox="0 0 28 28" fill="none" xmlns="http://www.w3.org/2000/svg">
<path fill-rule="evenodd" clip-rule="evenodd" d="M12.9949 1.18646C13.2616 1.20825 13.5763 1.25966 13.893 1.42101C14.332 1.64472 14.689 2.00167 14.9127 2.44072C15.074 2.75738 15.1254 3.07207 15.1472 3.33876C15.1515 3.39063 15.1548 3.4445 15.1574 3.50002L20.1152 3.50002C21.0543 3.50001 21.8294 3.49999 22.4608 3.55158C23.1166 3.60516 23.7194 3.72015 24.2856 4.00866C25.1637 4.45607 25.8776 5.16998 26.325 6.04807C26.6135 6.61429 26.7285 7.21711 26.7821 7.87289C26.8337 8.50429 26.8337 9.27939 26.8337 10.2185V20.1148C26.8337 21.054 26.8337 21.8291 26.7821 22.4605C26.7285 23.1163 26.6135 23.7191 26.325 24.2853C25.8776 25.1634 25.1637 25.8773 24.2856 26.3247C23.7194 26.6132 23.1166 26.7282 22.4608 26.7818C21.8294 26.8334 21.0543 26.8334 20.1152 26.8334L15.8298 26.8334C15.5354 26.8334 15.2485 26.8334 15.0057 26.8136C14.739 26.7918 14.4243 26.7404 14.1077 26.579C13.6686 26.3553 13.3117 25.9984 13.088 25.5593C12.9266 25.2427 12.8752 24.928 12.8534 24.6613C12.8492 24.6094 12.8459 24.5555 12.8432 24.5H7.88545C6.94633 24.5 6.17125 24.5001 5.53986 24.4485C4.88408 24.3949 4.28126 24.2799 3.71504 23.9914C2.83695 23.544 2.12304 22.8301 1.67563 21.952C1.38712 21.3858 1.27213 20.7829 1.21855 20.1272C1.16697 19.4958 1.16698 18.7207 1.16699 17.7816V7.88518C1.16698 6.94605 1.16697 6.17095 1.21855 5.53956C1.27213 4.88378 1.38712 4.28096 1.67563 3.71474C2.12304 2.83665 2.83695 2.12274 3.71504 1.67533C4.28126 1.38682 4.88408 1.27183 5.53986 1.21825C6.17126 1.16667 6.94635 1.16668 7.88548 1.16669L12.1709 1.16669C12.4653 1.16666 12.7521 1.16662 12.9949 1.18646ZM9.33366 3.50003V5.83335H12.8337V3.50002L9.33366 3.50003ZM5.72987 3.54384C6.07239 3.51585 6.48054 3.50573 7.00033 3.50208V5.83335H3.53633C3.53877 5.79809 3.54136 5.76351 3.54414 5.72957C3.58593 5.21809 3.66167 4.95651 3.75465 4.77405C3.97835 4.335 4.3353 3.97805 4.77435 3.75434C4.95682 3.66137 5.21839 3.58563 5.72987 3.54384ZM9.33366 19.8334H12.8337L12.8337 22.1667L9.33366 22.1667V19.8334ZM7.00033 19.8334V22.1646C6.48054 22.161 6.07239 22.1509 5.72987 22.1229C5.21839 22.0811 4.95682 22.0053 4.77435 21.9124C4.3353 21.6887 3.97835 21.3317 3.75465 20.8927C3.66167 20.7102 3.58593 20.4486 3.54414 19.9371C3.54136 19.9032 3.53877 19.8686 3.53633 19.8334H7.00033ZM15.167 22.1667V24.5H18.667V22.1667H15.167ZM21.0003 24.498C21.5201 24.4943 21.9283 24.4842 22.2708 24.4562C22.7823 24.4144 23.0438 24.3387 23.2263 24.2457C23.6654 24.022 24.0223 23.665 24.246 23.226C24.339 23.0435 24.4147 22.782 24.4565 22.2705C24.4593 22.2365 24.4619 22.202 24.4643 22.1667H21.0003V24.498ZM15.167 8.16669H18.667V5.83335L15.167 5.83335L15.167 8.16669ZM21.0003 5.83541V8.16669H24.4643C24.4619 8.13142 24.4593 8.09684 24.4565 8.0629C24.4147 7.55141 24.339 7.28984 24.246 7.10738C24.0223 6.66833 23.6654 6.31138 23.2263 6.08767C23.0438 5.9947 22.7823 5.91895 22.2708 5.87716C21.9283 5.84918 21.5201 5.83906 21.0003 5.83541Z" fill="white"/>
</svg>
