<svg width="28" height="28" viewBox="0 0 28 28" fill="none" xmlns="http://www.w3.org/2000/svg">
<path fill-rule="evenodd" clip-rule="evenodd" d="M14.0003 1.16667C7.87917 1.16667 2.91699 6.12885 2.91699 12.25C2.91699 18.3712 7.87917 23.3333 14.0003 23.3333C20.1215 23.3333 25.0837 18.3712 25.0837 12.25C25.0837 6.12885 20.1215 1.16667 14.0003 1.16667ZM17.7191 12.25C17.7191 14.3038 16.0541 15.9688 14.0003 15.9688C11.9465 15.9688 10.2816 14.3038 10.2816 12.25C10.2816 10.1962 11.9465 8.53126 14.0003 8.53126C16.0541 8.53126 17.7191 10.1962 17.7191 12.25Z" fill="white"/>
<path d="M9.33366 24.5C8.68933 24.5 8.16699 25.0223 8.16699 25.6667C8.16699 26.311 8.68933 26.8333 9.33366 26.8333H18.667C19.3113 26.8333 19.8337 26.311 19.8337 25.6667C19.8337 25.0223 19.3113 24.5 18.667 24.5H9.33366Z" fill="white"/>
<circle cx="26" cy="2" r="2" fill="#ED013A"/>
</svg>
