<svg width="28" height="28" viewBox="0 0 28 28" fill="none" xmlns="http://www.w3.org/2000/svg">
<path fill-rule="evenodd" clip-rule="evenodd" d="M15.1803 4.67366C14.9887 4.6718 14.8155 4.67043 14.6645 4.66943C14.6378 4.6676 14.6108 4.66667 14.5837 4.66667H13.417C13.3884 4.66667 13.3601 4.6677 13.332 4.66972C13.1817 4.67081 13.0096 4.6723 12.8193 4.67433C12.102 4.68198 11.1251 4.69727 10.0895 4.72793C9.05571 4.75853 7.954 4.8047 6.98972 4.87476C6.05796 4.94247 5.1558 5.03837 4.57924 5.19198L4.56311 5.1964C3.86694 5.39261 3.23456 5.76849 2.73007 6.28659C2.22555 6.80473 1.86682 7.44675 1.69062 8.14801C1.68426 8.17331 1.67876 8.19881 1.67411 8.22448C1.3279 10.137 1.15834 12.077 1.16758 14.0204C1.15565 15.9783 1.32521 17.9332 1.67412 19.8601C1.681 19.8981 1.68977 19.9358 1.70039 19.9729C1.89463 20.6523 2.26136 21.2699 2.76467 21.7661C3.26795 22.2623 3.89077 22.6204 4.57278 22.8063L4.57924 22.808C5.1558 22.9616 6.05796 23.0575 6.98972 23.1252C7.954 23.1953 9.05571 23.2415 10.0895 23.2721C11.1251 23.3027 12.102 23.318 12.8193 23.3257C13.0096 23.3277 13.1817 23.3292 13.3321 23.3303C13.3601 23.3323 13.3884 23.3333 13.417 23.3333H14.5837C14.6122 23.3333 14.6406 23.3323 14.6686 23.3303C14.8189 23.3292 14.9911 23.3277 15.1814 23.3257C15.8987 23.318 16.8755 23.3027 17.9112 23.2721C18.9449 23.2415 20.0467 23.1953 21.0109 23.1252C21.9427 23.0575 22.8449 22.9616 23.4214 22.808L23.4375 22.8036C24.1337 22.6074 24.7661 22.2315 25.2706 21.7134C25.7751 21.1953 26.1338 20.5533 26.31 19.852C26.3164 19.8267 26.3219 19.8012 26.3266 19.7755C26.6701 17.8772 26.8397 15.9516 26.8331 14.0227C26.8451 12.0645 26.6755 10.1093 26.3265 8.18217C26.3219 8.15652 26.3164 8.13103 26.31 8.10575C26.1338 7.40449 25.7751 6.76247 25.2706 6.24433C24.7661 5.72623 24.1337 5.35035 23.4375 5.15414C23.424 5.15034 23.4105 5.14677 23.3968 5.14345C22.8295 5.00545 21.9358 4.91827 21.0036 4.85643C20.0414 4.79259 18.9413 4.75049 17.9082 4.72256C16.8733 4.69459 15.8972 4.68064 15.1803 4.67366ZM11.4917 10.0521C11.3753 10.2075 11.3753 10.486 11.3753 11.0428V16.957C11.3753 17.5138 11.3753 17.7923 11.4917 17.9477C11.5931 18.0831 11.7483 18.1679 11.9171 18.1799C12.1108 18.1938 12.345 18.0432 12.8134 17.7421L17.4133 14.785C17.8198 14.5237 18.023 14.3931 18.0932 14.2269C18.1545 14.0818 18.1545 13.918 18.0932 13.7729C18.023 13.6067 17.8198 13.4761 17.4133 13.2148L12.8134 10.2577C12.345 9.95657 12.1108 9.80602 11.9171 9.81985C11.7483 9.8319 11.5931 9.91665 11.4917 10.0521Z" fill="white"/>
</svg>
